<svg xmlns="http://www.w3.org/2000/svg" version="1.1" xmlns:xlink="http://www.w3.org/1999/xlink" xmlns:svgjs="http://svgjs.dev/svgjs" width="1000" height="1000" viewBox="0 0 1000 1000"><rect width="1000" height="1000" fill="#ffffff"></rect><g transform="matrix(0.7,0,0,0.7,149.57575757575756,458.82961121339133)"><svg viewBox="0 0 396 47" data-background-color="#ffffff" preserveAspectRatio="xMidYMid meet" height="118" width="1000" xmlns="http://www.w3.org/2000/svg" xmlns:xlink="http://www.w3.org/1999/xlink"><g id="tight-bounds" transform="matrix(1,0,0,1,0.2400000000000091,-0.07374972190550011)"><svg viewBox="0 0 395.52 47.147499443811" height="47.147499443811" width="395.52"><g><svg viewBox="0 0 470.99660541838125 56.144600000000004" height="47.147499443811" width="395.52"><g><svg viewBox="0 0 470.99660541838125 56.144600000000004" height="56.144600000000004" width="470.99660541838125"><g id="textblocktransform"><svg viewBox="0 0 470.99660541838125 56.144600000000004" height="56.144600000000004" width="470.99660541838125" id="textblock"><g><svg viewBox="0 0 470.99660541838125 56.144600000000004" height="56.144600000000004" width="470.99660541838125"><g><svg><g></g><g></g></svg></g><g><svg><g><svg></svg></g><g></g></svg></g><g id="text-0"><svg viewBox="0 0 470.99660541838125 56.144600000000004" height="56.144600000000004" width="470.99660541838125"><g transform="matrix(1,0,0,1,0,14.43503449920509)"><svg width="395.52" viewBox="3.25 -34.29999923706055 503.1600036621094 34.70000076293945" height="27.274531001589825" data-palette-color="#4b91f1"><path d="M23.4-6.75L23.4 0 3.25 0 3.25-33.7 10.95-33.7 10.95-6.75 23.4-6.75ZM48.6-6.15L48.6 0 27.65 0 27.65-33.7 48.4-33.7 48.4-27.55 35.4-27.55 35.4-19.9 47-19.9 47-13.8 35.4-13.8 35.4-6.15 48.6-6.15ZM83.9-20.1L83.9-3.1Q79.09 0.4 71.8 0.4L71.8 0.4Q63.7 0.4 58.65-4.25 53.6-8.9 53.6-16.9L53.6-16.9Q53.6-24.8 58.87-29.55 64.15-34.3 72.25-34.3L72.25-34.3Q77.95-34.3 82.09-32.2L82.09-32.2 82.09-24.5Q77.3-27.25 72.25-27.25L72.25-27.25Q67.5-27.25 64.7-24.43 61.9-21.6 61.9-16.9L61.9-16.9Q61.9-12.15 64.65-9.35 67.4-6.55 72.15-6.55L72.15-6.55Q74.3-6.55 76.4-7.2L76.4-7.2 76.4-13.55 70.95-13.55 70.95-20.1 83.9-20.1ZM100.34-14.3L100.34-14.3 99.99-13.1 108.09-13.1 107.74-14.3Q106.29-19.2 105.37-22.65 104.44-26.1 104.24-27.1L104.24-27.1 104.04-28.1Q103.64-25.35 100.34-14.3ZM98.14-6.9L96.09 0 88.04 0 99.29-33.7 108.99-33.7 120.24 0 111.99 0 109.94-6.9 98.14-6.9ZM144.79-6.75L144.79 0 124.64 0 124.64-33.7 132.34-33.7 132.34-6.75 144.79-6.75ZM160.64-10.9L160.64-10.9 156.74-10.9 156.74 0 149.04 0 149.04-33.7 160.64-33.7Q166.24-33.7 169.71-30.55 173.19-27.4 173.19-22.55L173.19-22.55Q173.19-17 169.56-13.95 165.94-10.9 160.64-10.9ZM159.74-27.55L159.74-27.55 156.74-27.55 156.74-17 159.29-17Q165.39-17 165.39-22.55L165.39-22.55Q165.39-27.55 159.74-27.55ZM187.39-14.3L187.39-14.3 187.04-13.1 195.14-13.1 194.79-14.3Q193.34-19.2 192.41-22.65 191.49-26.1 191.29-27.1L191.29-27.1 191.09-28.1Q190.69-25.35 187.39-14.3ZM185.19-6.9L183.14 0 175.09 0 186.34-33.7 196.04-33.7 207.29 0 199.04 0 196.99-6.9 185.19-6.9ZM223.28-10.9L223.28-10.9 219.38-10.9 219.38 0 211.68 0 211.68-33.7 223.28-33.7Q228.88-33.7 232.36-30.55 235.83-27.4 235.83-22.55L235.83-22.55Q235.83-17 232.21-13.95 228.58-10.9 223.28-10.9ZM222.38-27.55L222.38-27.55 219.38-27.55 219.38-17 221.93-17Q228.03-17 228.03-22.55L228.03-22.55Q228.03-27.55 222.38-27.55ZM260.78-6.15L260.78 0 239.83 0 239.83-33.7 260.58-33.7 260.58-27.55 247.58-27.55 247.58-19.9 259.18-19.9 259.18-13.8 247.58-13.8 247.58-6.15 260.78-6.15ZM278.53-27.45L278.53-27.45 274.73-27.45 274.73-17.95 278.38-17.95Q283.38-17.95 283.38-22.85L283.38-22.85Q283.38-25 282.08-26.23 280.78-27.45 278.53-27.45ZM274.73-11.7L274.73 0 267.03 0 267.03-33.7 278.68-33.7Q284.33-33.7 287.75-30.7 291.18-27.7 291.18-22.9L291.18-22.9Q291.18-15.7 285.03-12.95L285.03-12.95 293.58 0 284.38 0 277.08-11.7 274.73-11.7ZM316.18-10.65L313.08 0 304.48 0 295.43-33.7 303.53-33.7 306.63-21.3Q307.63-17.3 308.28-14.08 308.93-10.85 309.08-9.6L309.08-9.6 309.28-8.4Q310.13-12.3 312.68-21.3L312.68-21.3 316.03-33.2 321.73-33.2 325.03-21.3Q326.08-17.55 326.9-14.33 327.73-11.1 328.03-9.75L328.03-9.75 328.33-8.4Q328.98-12.85 331.13-21.35L331.13-21.35 334.23-33.7 342.08-33.7 333.08 0 324.48 0 321.53-10.65Q320.48-14.5 319.8-17.15 319.13-19.8 318.98-20.55L318.98-20.55 318.88-21.3Q318.73-19.25 316.18-10.65L316.18-10.65ZM367.22-6.15L367.22 0 346.27 0 346.27-33.7 367.02-33.7 367.02-27.55 354.02-27.55 354.02-19.9 365.62-19.9 365.62-13.8 354.02-13.8 354.02-6.15 367.22-6.15ZM381.67-33.7L381.67 0 373.97 0 373.97-33.7 381.67-33.7ZM417.72-20.1L417.72-3.1Q412.92 0.4 405.62 0.4L405.62 0.4Q397.52 0.4 392.47-4.25 387.42-8.9 387.42-16.9L387.42-16.9Q387.42-24.8 392.69-29.55 397.97-34.3 406.07-34.3L406.07-34.3Q411.77-34.3 415.92-32.2L415.92-32.2 415.92-24.5Q411.12-27.25 406.07-27.25L406.07-27.25Q401.32-27.25 398.52-24.43 395.72-21.6 395.72-16.9L395.72-16.9Q395.72-12.15 398.47-9.35 401.22-6.55 405.97-6.55L405.97-6.55Q408.12-6.55 410.22-7.2L410.22-7.2 410.22-13.55 404.77-13.55 404.77-20.1 417.72-20.1ZM451.77-33.7L451.77 0 444.02 0 444.02-13.45 431.67-13.45 431.67 0 423.97 0 423.97-33.7 431.67-33.7 431.67-20 444.02-20 444.02-33.7 451.77-33.7ZM480.71-33.7L480.71-27.5 472.51-27.5 472.51 0 464.76 0 464.76-27.5 456.51-27.5 456.51-33.7 480.71-33.7ZM506.41-9.8L506.41-9.8Q506.41-5.25 503.06-2.43 499.71 0.4 494.16 0.4L494.16 0.4Q488.21 0.4 484.46-1.7L484.46-1.7 484.46-9.45Q489.01-6.15 494.16-6.15L494.16-6.15Q495.91-6.15 497.06-7.08 498.21-8 498.21-9.5L498.21-9.5Q498.21-10 498.06-10.45 497.91-10.9 497.51-11.3 497.11-11.7 496.74-11.98 496.36-12.25 495.64-12.63 494.91-13 494.41-13.25 493.91-13.5 492.94-13.95 491.96-14.4 491.36-14.65L491.36-14.65Q488.11-16.15 486.14-18.35 484.16-20.55 484.16-24.2L484.16-24.2Q484.16-28.55 487.36-31.23 490.56-33.9 496.21-33.9L496.21-33.9Q501.26-33.9 504.91-32.2L504.91-32.2 504.91-25Q500.86-27.35 496.51-27.35L496.51-27.35Q494.56-27.35 493.54-26.55 492.51-25.75 492.51-24.5 492.51-23.25 493.76-22.28 495.01-21.3 497.51-20.2L497.51-20.2Q499.06-19.5 500.09-18.98 501.11-18.45 502.44-17.53 503.76-16.6 504.54-15.58 505.31-14.55 505.86-13.05 506.41-11.55 506.41-9.8Z" opacity="1" transform="matrix(1,0,0,1,0,0)" fill="#4b91f1" class="undefined-text-0" data-fill-palette-color="primary"></path></svg></g><g><svg xmlns="http://www.w3.org/2000/svg" xmlns:xlink="http://www.w3.org/1999/xlink" version="1.1" x="408.7754" y="0" viewBox="19.57225799560547 21.773998260498047 61.20318603515625 55.22600173950195" enable-background="new 0 0 100 100" xml:space="preserve" height="56.144600000000004" width="62.221205418381295" class="icon-s-0" data-fill-palette-color="accent" id="s-0"><path d="M80.735 74.401l-7.221-30.03C73.355 43.693 72.547 43 71.851 43H59.271c1.916-2 3.092-5.616 3.092-8.719 0-6.722-5.468-12.507-12.189-12.507-6.722 0-12.191 5.944-12.191 12.666 0 3.104 1.176 6.561 3.092 8.561H29.641c-0.677 0-1.509 0.688-1.686 1.341l-8.33 30.328c-0.123 0.451-0.028 1.152 0.255 1.523C20.165 76.563 20.605 77 21.072 77h58.203c0.458 0 0.892-0.588 1.176-0.947C80.736 75.695 80.841 74.848 80.735 74.401zM50.174 27.456c3.413 0 6.189 2.777 6.189 6.19s-2.776 6.19-6.189 6.19c-3.414 0-6.191-2.777-6.191-6.19S46.76 27.456 50.174 27.456z" fill="#4b91f1" data-fill-palette-color="accent"></path></svg></g></svg></g></svg></g></svg></g></svg></g></svg></g><defs></defs></svg><rect width="395.52" height="47.147499443811" fill="none" stroke="none" visibility="hidden"></rect></g></svg></g></svg>