<?xml version="1.0"?>
<svg xmlns:rdf="http://www.w3.org/1999/02/22-rdf-syntax-ns#" xmlns="http://www.w3.org/2000/svg" xmlns:cc="http://web.resource.org/cc/" xmlns:dc="http://purl.org/dc/elements/1.1/" xmlns:svg="http://www.w3.org/2000/svg" id="Layer_1" xml:space="preserve" viewBox="0 0 448.244 289.492" version="1.0">
<g id="g5" fill-rule="evenodd">
	<path id="path7" fill="#ddaa13" d="m179.14 16.49c8.38-6.696 17.35-11.088 27.18-13.176 9.75-2.088 21.16-1.764 31.32 0.396 10.08 2.088 19.51 5.94 28.83 11.952l-8.64 14.004c-4.14-2.196-7.85-3.744-11.52-4.932-3.74-1.188-7.06-1.872-10.33-2.052 1.33 10.728 1.98 26.424 2.09 47.772 0.03 21.42-0.98 54.826-1.66 79.526-0.83 24.55-1.65 46.44-2.88 66.78 3.64-0.04 7.02 0.79 10.3 2.34 3.2 1.62 6.23 3.78 9.07 7.02 6.66 0.32 11.7 1.37 15.66 3.27 3.81 1.91 6.34 4.4 7.41 7.85 3.93 0.54 7.82 1.91 11.53 4.11 3.7 2.19 9.18 5.22 10.72 9.07 1.41 3.81 2.06 8.67-2.08 13.6-4.25 4.79-11.34 11.16-23.08 15.23-11.99 3.96-31.07 7.92-47.38 8.68-16.38 0.61-36-0.9-49.42-4.54-13.47-3.78-25.17-11.44-30.1-17.31-4.86-5.9-2.12-13.25 0.83-17.32 2.81-4.14 8.17-6.33 16.09-6.98 1.4-2.38 4-4.72 8.21-7.02 4.14-2.38 9.5-4.72 16.49-7.02 0.46-0.72 2.66-1.94 7.02-3.67 4.28-1.84 10.33-4.18 18.54-7.02-2.13-23.73-3.32-47.35-3.71-72.11-0.43-24.88 0.75-54.687 1.22-75.422 0.47-20.664 0.76-36.324 1.26-47.664-5.29 1.404-9.65 2.772-13.21 4.104-3.64 1.332-6.34 2.52-8.24 3.708-3.82-4.392-7.67-8.784-11.52-13.176z"/>
	<path id="path9" fill="#ddaa13" d="m49.75 167.08c-13.5 2.05-23.76 4.39-31.32 7.02-7.632 2.59-11.844 6.44-13.608 8.64-1.836 2.05-1.476 2.74 3.312 4.14 4.824 1.33 13.248 2.7 25.56 4.1 3.672 7.02 9.756 11.78 18.54 14.84 8.748 2.95 21.348 5.9 33.768 2.88 12.42-3.21 25.418-10.16 39.958-21.42 7.42-0.83 13.32-2.34 18.15-4.54 4.71-2.2 13.42-5.9 10.29-8.64-3.31-2.92-18.25-6.91-29.27-8.24-11.08-1.34-24.08 0.14-36.644 0.39-12.707 0.15-25.343 0.47-38.736 0.83z"/>
	<path id="path11" stroke="#000" stroke-width=".036" stroke-miterlimit="10" d="m61.703 166.68c-14.904 0.26-27.144 2.02-37.548 5.01-10.368 3.06-24.696 9.65-24.12 13.1 0.576 3.35 12.96 5.37 27.576 6.88 14.58 1.29 42.876 1.94 59.328 1.4 16.311-0.61 28.731-2.23 37.941-4.86-24.12 1.77-44.673 2.59-62.781 2.77-18.108 0.04-35.316-0.93-44.82-2.08-9.54-1.19-12.06-2.53-11.736-4.83 0.252-2.41 4.428-6.05 13.788-8.96 9.467-2.96 23.364-5.76 42.372-8.43z"/>
	<path id="path13" stroke="#000" stroke-width=".036" stroke-miterlimit="10" d="m90.539 165.42c14.871-1.11 27.501-1.11 38.301 0 10.77 1.05 22.07 4.03 26 6.63 3.78 2.59 0.36 6.12-3.32 8.64-3.81 2.37-10.22 4.25-19.36 5.76 9.21-2.56 15.08-5.08 18.14-7.42 2.92-2.41 3.56-4.93-0.43-6.98-4.14-2.23-14.01-4.68-23.91-5.8-10-1.11-21.63-1.44-35.421-0.83z"/>
	<path id="path15" stroke="#000" stroke-width=".036" stroke-miterlimit="10" d="m127.62 169.13c10.73 2.31 15.77 4.47 15.26 6.63-0.75 2.12-8.6 4.17-18.54 6.15-9.93 1.84-23.22 3.49-40.389 4.97 16.419-2.23 28.729-4.25 37.479-6.19 8.64-1.98 13.32-3.49 14.43-5.37 1.01-1.98-1.69-3.99-8.24-6.19z"/>
	<path id="path17" stroke="#000" stroke-width=".036" stroke-miterlimit="10" d="m98.351 169.96c-15.084-0.25-28.224 0.22-39.96 1.26-11.808 0.97-23.724 2.99-30.06 4.93-6.444 1.95-9.108 4.29-7.416 6.19 1.8 1.77 7.74 3.28 18.108 4.54-10.224-1.8-15.264-3.49-15.66-5.36-0.288-1.88 6.192-4.25 13.608-5.76 7.38-1.62 19.728-2.81 30.096-3.71 10.368-0.94 20.519-1.73 31.284-2.09z"/>
	<path id="path19" stroke="#000" stroke-width=".036" stroke-miterlimit="10" d="m41.11 200.06c8.964 5.36 17.208 8.74 25.128 10.29 7.776 1.48 13.104 1.12 21.816-1.22 8.784-2.52 18.536-6.73 30.096-13.22-14.54 5.4-26.172 8.93-35.424 10.73-9.252 1.7-12.888 1.05-19.8 0-7.019-1.15-14.147-3.34-21.816-6.58z"/>
	<path id="path21" stroke="#000" stroke-width=".036" stroke-miterlimit="10" d="m66.635 101.56c-8.424 11.34-15.012 21.45-20.196 31.32-5.256 9.65-8.676 18.57-10.692 26.78 8.64-16.27 15.372-28.91 20.592-38.73 5.148-9.83 8.532-16.06 10.296-19.37z"/>
	<path id="path23" stroke="#000" stroke-width=".036" stroke-miterlimit="10" d="m83.123 96.23c9.54 14.26 18.147 26.24 25.957 36.65 7.81 10.4 14.58 18.5 20.59 25.13-8.57-12.67-16.49-23.8-24.3-34.2-7.883-10.34-15.12-19.48-22.247-27.58z"/>
	<path id="path25" stroke="#000" stroke-width=".036" stroke-miterlimit="10" d="m74.482 95.402c-1.368 14.978-2.376 27.288-2.88 37.908-0.612 10.48-0.756 18.61-0.432 24.7 1.908-12.75 3.096-24.05 3.708-34.6 0.54-10.48 0.361-19.76-0.396-28.008z"/>
	<path id="path27" stroke="#000" stroke-width=".036" stroke-miterlimit="10" d="m194.36 222.3c-5.11 3.53-7.84 7.1-8.64 10.69-0.75 3.61-0.68 7.64 4.11 10.73 4.75 2.96 15.08 6.12 24.33 7.02 9.29 0.62 22.65-0.21 30.5-2.48 7.59-2.23 12.67-5.76 15.22-10.73l-9.07-11.91 4.97 12.34c-4.39 3.6-9.94 6.12-17.32 7.42-7.41 1.15-18.28 1.15-26.35 0.4-8.21-0.72-18.03-1.91-21.85-4.54-3.67-2.77-1.22-8.78-0.43-11.52 0.61-2.74 3.74-3.78 4.53-4.93 0.72-1.3 0.72-2.13 0-2.49z"/>
	<path id="path29" stroke="#000" stroke-width=".036" stroke-miterlimit="10" d="m184.07 227.23c-5.84 1.16-9.72 3.03-11.96 5.76-2.19 2.74-4.5 6.56-1.22 10.34 3.28 3.7 10.51 9.07 20.59 11.52 10.12 2.16 27.29 2.52 39.17 2.05 11.7-0.47 21.67-2.16 30.49-4.93-17.82 2.66-32.65 3.63-45.32 3.31-12.71-0.5-22.79-2.95-30.1-5.8-7.38-2.91-13.35-7.45-13.61-11.12-0.25-3.75 3.64-7.45 11.96-11.13z"/>
	<path id="path31" stroke="#000" stroke-width=".036" stroke-miterlimit="10" d="m208.4 218.99c-5.58 0.97-8.78 2.31-9.9 4.14-1.08 1.8-0.86 4.97 3.28 6.59 4.14 1.44 14.26 2.45 21.02 2.48 6.66-0.03 12.71-0.86 18.54-2.48-12.06 0.94-21.34 0.94-28 0.4-6.77-0.65-11.13-2.34-11.96-4.11-0.75-1.87 1.41-4.21 7.02-7.02z"/>
	<path id="path33" stroke="#000" stroke-width=".036" stroke-miterlimit="10" d="m161.42 243.33c-2.55 2.3-3.38 5-2.88 8.24 0.51 3.13-0.03 7.16 6.16 11.12 6.26 3.93 16.52 10.26 30.49 12.35 13.82 1.95 38.81 1.12 51.91-0.39 12.93-1.59 18.76-4.94 25.56-9.08 6.7-4.31 11.38-9.5 14.44-16.09l-8.24-11.12 5.36 11.55c-1.58 3.24-5.26 6.63-11.16 10.3-6.01 3.67-13.46 9.32-24.3 11.52-11.02 1.98-29.52 1.51-40.79 0.83-11.3-0.76-18.79-2.45-26.35-4.93-7.63-2.6-15.62-6.3-18.97-10.3-3.39-4.03-3.75-8.75-1.23-14z"/>
	<path id="path35" stroke="#000" stroke-width=".036" stroke-miterlimit="10" d="m151.52 242.07c-5.47 4.14-8.17 8.85-8.24 14.43-0.11 5.58 1.11 13.25 7.85 18.54 6.73 5.04 18.21 9.58 32.11 11.95 13.82 2.35 30.31 3.03 50.29 2.06-19.44-0.4-35.6-2.23-49.47-5.37-13.93-3.24-27-7.81-32.94-13.57-5.83-5.94-2.26-16.23-2.08-21.02 0.04-4.68 0.86-7.02 2.48-7.02z"/>
	<path id="path37" stroke="#000" stroke-width=".036" stroke-miterlimit="10" d="m243 286.6c8.64-1.37 16.74-3.53 25.13-6.62 8.28-3.1 19.15-7.46 24.3-11.96 5-4.75 6.8-11.12 5.79-15.66-1.18-4.6-5.18-8.35-12.38-11.52 7.42 1.55 12.31 4.25 14.83 8.25 2.41 3.99 2.74 10.69 0 15.66-2.84 4.86-6.84 9.39-16.45 13.17-9.76 3.64-23.22 6.48-41.22 8.68z"/>
	<path id="path39" stroke="#000" stroke-width=".036" stroke-miterlimit="10" d="m262.37 228.06c6.19 1.37 10.26 3.24 12.35 5.76 2.01 2.52 1.54 6.2 0 9.08-1.7 2.77-4.94 5.14-9.87 7.41 5.62-2.91 8.17-6.15 7.81-9.86-0.46-3.78-3.85-7.78-10.29-12.39z"/>
	<path id="path41" stroke="#000" stroke-width=".036" stroke-miterlimit="10" d="m237.64 217.77c5.58 0.29 8.96 1.29 10.29 2.88 1.33 1.62 0.47 3.67-2.45 6.59 1.84-2.31 2.16-4.18 0.83-5.76-1.33-1.63-4.17-2.81-8.67-3.71z"/>
	<path id="path43" stroke="#000" stroke-width=".036" stroke-miterlimit="10" d="m233.93 213.45c2.19-19.84 3.53-40.76 4.53-63.87 0.87-23.33 1.34-52.594 0.83-73.762-0.57-21.096-1.94-37.944-4.1-51.516 1.26 25.812 1.8 53.928 1.62 85.718-0.29 31.82-1.12 65.7-2.88 103.43z"/>
	<path id="path45" stroke="#000" stroke-width=".036" stroke-miterlimit="10" d="m213.33 215.93c-1.26-33.3-1.94-65.52-2.05-98.06-0.21-32.619 0.33-64.155 1.23-96.015-2.92 37.404-4.29 71.496-4.11 104.22 0.18 32.57 1.7 62.02 4.93 89.85z"/>
	<path id="path47" stroke="#000" stroke-width=".036" stroke-miterlimit="10" d="m181.19 12.782c10.91-6.372 21.35-10.26 32.15-11.952 10.72-1.62 22.32-0.756 31.71 2.052 9.36 2.7 17.1 7.272 23.91 14.004-9.44-6.048-19.41-9.936-30.06-11.952-10.88-2.016-24.09-1.368-33.81 0-9.65 1.368-17.57 3.852-23.9 7.848z"/>
	<path id="path49" stroke="#000" stroke-width=".036" stroke-miterlimit="10" d="m177.91 16.058l11.92 16.92c2.55-2.52 5.4-4.536 8.67-6.192 3.21-1.692 6.77-2.88 10.7-3.708-4.68 0.36-8.39 0.864-11.52 1.656-3.14 0.792-5.48 1.62-7.02 2.88l-12.75-11.556z"/>
	<path id="path51" stroke="#000" stroke-width=".036" stroke-miterlimit="10" d="m235.19 21.854c3.53-0.072 6.91 0.612 10.29 1.656 3.39 1.152 6.63 2.664 9.87 4.932l13.21-9.468-11.95 14.4c-6.37-3.636-11.27-6.336-14.83-8.244-3.68-1.98-5.73-3.024-6.59-3.276z"/>
	<path id="path53" stroke="#000" stroke-width=".036" stroke-miterlimit="10" d="m223.23 12.386c-1.76 5.364-2.59 11.304-2.48 18.108 0.04 6.804 1.04 14.04 2.88 22.248 0.87-13.752 1.23-23.688 1.23-30.492-0.08-6.768-0.62-10.008-1.63-9.864z"/>
	<path id="path55" fill="#ddaa13" d="m42.73 72.326c11.916-3.528 23.4-5.508 35.028-5.796 11.664-0.396 22.792 0.9 34.202 3.744 27.75-5.148 53.35-8.136 78.3-9.504 24.77-1.368 44.14 0.108 69.62 1.656 25.56 1.548 52.53 3.888 82.41 7.416 4.82-4.284 11.91-6.3 21.85-6.192 9.9 0.108 22.07 2.448 37.08 7.02 1.8 1.296 1.8 2.664 0 4.104-1.94 1.44-5.65 3.276-11.13 4.536-5.58 1.188-14.07 2.916-21.74 2.7-7.74-0.324-15.59-1.728-23.98-4.356-37-4.212-68.36-6.624-95.61-7.38-27.22-0.72-42.63 1.584-66.35 2.88-23.8 1.26-48.6 2.664-75.38 4.5-10.372 3.6-20.488 5.436-30.928 5.364-10.44-0.108-20.772-1.98-31.284-5.76-2.124-0.252-3.42-0.9-3.744-1.656-0.324-0.792 0.18-1.98 1.656-3.276z"/>
	<path id="path57" stroke="#000" stroke-width=".036" stroke-miterlimit="10" d="m42.334 71.894c11.808-4.608 23.292-6.948 35.028-7.416 11.664-0.432 23.008 1.224 34.598 4.968 28.76-7.056 61.45-10.584 100.15-10.728 38.67-0.108 81.15 3.06 129.78 9.9 7.49-5.184 16.09-7.524 25.96-7.02 9.9 0.54 20.66 3.708 32.97 9.9-11.37-4.176-21.78-6.192-31.75-6.192s-19.08 2.016-27.61 6.192c-41-4.212-74.59-6.912-102.56-8.244-27.87-1.332-41.94-1.152-63.47 0.396-21.64 1.512-43.02 4.356-65.13 8.676-9.36-2.988-19.473-4.5-30.885-4.536-11.448-0.108-23.617 1.26-37.081 4.104z"/>
	<path id="path59" stroke="#000" stroke-width=".036" stroke-miterlimit="10" d="m49.75 78.914c11.7 4.176 21.672 6.372 30.492 6.588 8.712 0.144 15.948-1.548 21.848-5.364-11.408 1.836-21.308 2.664-30.092 2.484-8.855-0.216-16.091-1.404-22.248-3.708z"/>
	<path id="path61" stroke="#000" stroke-width=".036" stroke-miterlimit="10" d="m348.08 77.654c6.3 4.14 13.4 6.156 21.42 6.192 8-0.036 16.64-2.052 26.36-6.192-9.98 2.16-18.76 3.312-26.79 3.312-8.1 0-14.87-1.152-20.99-3.312z"/>
	<path id="path63" stroke="#000" stroke-width=".036" stroke-miterlimit="10" d="m118.15 78.914c37.98-5.22 69.66-8.28 96.84-9.468 27-1.08 43.42 0.756 64.26 2.448 20.77 1.476 40.18 3.672 59.33 6.588-30.31-3.312-57.31-5.364-82.8-6.156-25.45-0.792-45.29 0.036-68.4 1.224-23.22 1.116-45.79 2.808-69.23 5.364z"/>
	<path id="path65" fill="#ddaa13" d="m341.5 167.08c-13.5 2.05-23.76 4.39-31.32 7.02-7.64 2.59-11.85 6.44-13.61 8.64-1.84 2.05-1.48 2.74 3.31 4.14 4.82 1.33 13.25 2.7 25.56 4.1 3.67 7.02 9.76 11.78 18.54 14.84 8.82 2.95 21.24 5.9 33.77 2.88 12.38-3.21 25.52-10.16 39.99-21.42 7.38-0.83 13.29-2.34 18.11-4.54 4.72-2.2 13.43-5.9 10.3-8.64-3.35-2.92-18.15-6.91-29.23-8.24-11.13-1.34-24.05 0.14-36.69 0.39-12.71 0.15-25.34 0.47-38.73 0.83z"/>
	<path id="path67" stroke="#000" stroke-width=".036" stroke-miterlimit="10" d="m353.45 166.68c-14.91 0.26-27.15 2.02-37.55 5.01-10.37 3.06-24.7 9.65-24.12 13.1 0.58 3.35 12.96 5.37 27.58 6.88 14.58 1.29 42.87 1.94 59.32 1.4 16.31-0.61 28.73-2.23 37.95-4.86-24.12 1.77-44.68 2.59-62.79 2.77-18.1 0.04-35.31-0.93-44.82-2.08-9.54-1.19-12.06-2.53-11.73-4.83 0.25-2.41 4.43-6.05 13.79-8.96 9.46-2.96 23.36-5.76 42.37-8.43z"/>
	<path id="path69" stroke="#000" stroke-width=".036" stroke-miterlimit="10" d="m382.28 165.42c14.91-1.11 27.54-1.11 38.34 0 10.73 1.05 22.11 4.03 25.96 6.63 3.78 2.59 0.36 6.12-3.31 8.64-3.82 2.37-10.23 4.25-19.37 5.76 9.22-2.56 15.08-5.08 18.14-7.42 2.96-2.41 3.46-4.93-0.43-6.98-4.21-2.23-13.93-4.68-23.87-5.8-10-1.11-21.6-1.44-35.46-0.83z"/>
	<path id="path71" stroke="#000" stroke-width=".036" stroke-miterlimit="10" d="m419.36 169.13c10.73 2.31 15.77 4.47 15.27 6.63-0.76 2.12-8.61 4.17-18.54 6.15-9.94 1.84-23.22 3.49-40.39 4.97 16.41-2.23 28.72-4.25 37.51-6.19 8.67-1.98 13.25-3.49 14.4-5.37 0.97-1.98-1.73-3.99-8.25-6.19z"/>
	<path id="path73" stroke="#000" stroke-width=".036" stroke-miterlimit="10" d="m390.13 169.96c-15.12-0.25-28.26 0.22-39.99 1.26-11.92 0.97-23.69 2.99-30.06 4.93-6.45 1.95-9.11 4.29-7.42 6.19 1.8 1.77 7.74 3.28 18.11 4.54-10.15-1.8-15.23-3.49-15.63-5.36-0.25-1.88 6.12-4.25 13.57-5.76 7.28-1.62 19.77-2.81 30.1-3.71 10.3-0.94 20.59-1.73 31.32-2.09z"/>
	<path id="path75" stroke="#000" stroke-width=".036" stroke-miterlimit="10" d="m332.86 200.06c8.96 5.36 17.2 8.74 25.12 10.29 7.82 1.48 13.11 1.12 21.86-1.22 8.74-2.52 18.57-6.73 30.06-13.22-14.55 5.4-26.18 8.93-35.43 10.73-9.25 1.7-12.89 1.05-19.8 0-7.02-1.15-14.15-3.34-21.81-6.58z"/>
	<path id="path77" stroke="#000" stroke-width=".036" stroke-miterlimit="10" d="m358.38 101.56c-8.35 11.34-14.98 21.45-20.16 31.32-5.22 9.65-8.75 18.57-10.73 26.78 8.64-16.27 15.37-28.91 20.59-38.73 5.15-9.83 8.54-16.06 10.3-19.37z"/>
	<path id="path79" stroke="#000" stroke-width=".036" stroke-miterlimit="10" d="m374.87 96.23c9.54 14.26 18.14 26.24 25.95 36.65 7.82 10.4 14.55 18.5 20.63 25.13-8.49-12.67-16.56-23.8-24.33-34.2-7.89-10.34-15.12-19.48-22.25-27.58z"/>
	<path id="path81" stroke="#000" stroke-width=".036" stroke-miterlimit="10" d="m366.23 95.402c-1.37 14.978-2.38 27.288-2.88 37.908-0.61 10.48-0.76 18.61-0.43 24.7 1.9-12.75 3.09-24.05 3.7-34.6 0.54-10.48 0.36-19.76-0.39-28.008z"/>
</g>
<metadata><rdf:RDF><cc:Work><dc:format>image/svg+xml</dc:format><dc:type rdf:resource="http://purl.org/dc/dcmitype/StillImage"/><cc:license rdf:resource="http://creativecommons.org/licenses/publicdomain/"/><dc:publisher><cc:Agent rdf:about="http://openclipart.org/"><dc:title>Openclipart</dc:title></cc:Agent></dc:publisher><dc:title>Balance Scale</dc:title><dc:date>2006-10-12T17:54:04</dc:date><dc:description>To fulfill a request in the request wiki page.</dc:description><dc:source>http://openclipart.org/detail/544/balance-scale-by-gerald_g</dc:source><dc:creator><cc:Agent><dc:title>Gerald_G</dc:title></cc:Agent></dc:creator><dc:subject><rdf:Bag><rdf:li>balance</rdf:li><rdf:li>clip art</rdf:li><rdf:li>clipart</rdf:li><rdf:li>legal</rdf:li><rdf:li>scale</rdf:li><rdf:li>tool</rdf:li></rdf:Bag></dc:subject></cc:Work><cc:License rdf:about="http://creativecommons.org/licenses/publicdomain/"><cc:permits rdf:resource="http://creativecommons.org/ns#Reproduction"/><cc:permits rdf:resource="http://creativecommons.org/ns#Distribution"/><cc:permits rdf:resource="http://creativecommons.org/ns#DerivativeWorks"/></cc:License></rdf:RDF></metadata></svg>
